<?xml version="1.0" encoding="UTF-8"?>
<!-- Uploaded to: SVG Find, www.svgrepo.com, Generator: SVG Find Mixer Tools -->
<svg fill="#000000" width="800px" height="800px" version="1.1" viewBox="144 144 512 512" xmlns="http://www.w3.org/2000/svg">
 <g>
  <path d="m283.78 345.19c-53.52 0-107.7-13.68-107.7-39.82 0-26.152 54.18-39.828 107.7-39.828s107.7 13.68 107.7 39.828c-0.003907 26.141-54.18 39.82-107.7 39.82zm0-66.125c-57.227 0-93.754 15.582-93.754 26.305s36.527 26.301 93.754 26.301 93.75-15.578 93.75-26.301-36.523-26.305-93.75-26.305z"/>
  <path d="m283.78 405.29c-53.516 0-107.7-13.68-107.7-39.82v-60.105h13.945v60.105c0 10.719 36.523 26.297 93.75 26.297 57.23 0 93.75-15.578 93.75-26.297v-60.105h13.949v60.105c-0.003907 26.141-54.18 39.82-107.7 39.82z"/>
  <path d="m283.78 465.39c-53.516 0-107.7-13.684-107.7-39.824v-60.102h13.945v60.102c0 10.723 36.523 26.297 93.75 26.297 57.23 0 93.75-15.574 93.75-26.297v-60.102h13.949v60.102c-0.003907 26.141-54.18 39.824-107.7 39.824z"/>
  <path d="m283.78 525.49c-53.516 0-107.7-13.684-107.7-39.82v-60.102h13.945v60.102c0 10.723 36.523 26.297 93.75 26.297 57.23 0 93.75-15.574 93.75-26.297v-60.102h13.949v60.102c-0.003907 26.137-54.18 39.82-107.7 39.82z"/>
  <path d="m260.54 361.72h-15.496v13.527h15.496z"/>
  <path d="m291.53 361.72h-15.496v13.527h15.496z"/>
  <path d="m322.52 361.72h-15.492v13.527h15.492z"/>
  <path d="m260.54 421.82h-15.496v13.527h15.496z"/>
  <path d="m291.53 421.82h-15.496v13.527h15.496z"/>
  <path d="m322.52 421.82h-15.492v13.527h15.492z"/>
  <path d="m260.54 481.92h-15.496v13.527h15.496z"/>
  <path d="m291.53 481.92h-15.496v13.527h15.496z"/>
  <path d="m322.52 481.92h-15.492v13.527h15.492z"/>
  <path d="m438.74 451.9h-30.992v13.523h30.992z"/>
  <path d="m438.74 331.67h-30.992v13.523h30.992z"/>
  <path d="m469.73 391.79h-30.996v13.527h30.996z"/>
  <path d="m469.73 531.56h-37.961v-266.02h37.961v13.527h-24.016v238.96h24.016z"/>
  <path d="m531.71 265.54h-15.492v13.527h15.492z"/>
  <path d="m562.7 265.54h-15.496v13.527h15.496z"/>
  <path d="m616.94 265.54h-38.742v13.527h38.742z"/>
  <path d="m609.2 318.14h-108.47c-3.9414 0-7.6328-1.4844-10.41-4.1797-2.7812-2.6914-4.3125-6.2812-4.3125-10.09v-63.129c0-3.8125 1.5312-7.3984 4.3125-10.094 2.7773-2.6953 6.4805-4.1836 10.41-4.1836h108.47c3.9336 0 7.6289 1.4883 10.406 4.1836 2.7812 2.6953 4.3164 6.2852 4.3164 10.094v63.129c0 3.8125-1.5352 7.3984-4.3164 10.09-2.7734 2.6953-6.4648 4.1797-10.406 4.1797zm-108.47-78.152c-0.21484 0-0.39453 0.074219-0.54687 0.21875-0.1875 0.18359-0.22656 0.39062-0.22656 0.53125v63.129c0 0.14062 0.042969 0.35156 0.22656 0.53125 0.14844 0.14062 0.33203 0.21484 0.54687 0.21484h108.47c0.21875 0 0.39844-0.070312 0.54688-0.21484 0.1875-0.18359 0.22656-0.39063 0.22656-0.53125v-63.129c0-0.14062-0.042968-0.35156-0.22656-0.53125-0.14844-0.14453-0.33984-0.21875-0.54688-0.21875z"/>
  <path d="m531.71 391.77h-15.492v13.527h15.492z"/>
  <path d="m562.7 391.77h-15.496v13.527h15.496z"/>
  <path d="m616.94 391.77h-38.742v13.527h38.742z"/>
  <path d="m609.2 444.38h-108.47c-3.9336 0-7.6328-1.4883-10.41-4.1836-2.7812-2.6992-4.3125-6.2812-4.3125-10.094v-63.125c0-3.8164 1.5312-7.4023 4.3125-10.098 2.793-2.6992 6.4844-4.1836 10.41-4.1836h108.47c3.9219 0 7.6133 1.4844 10.398 4.1758 2.7891 2.7031 4.3242 6.293 4.3242 10.105v63.125c0 3.8164-1.5352 7.3945-4.3164 10.094-2.7773 2.6953-6.4727 4.1836-10.406 4.1836zm-108.47-78.156c-0.14453 0-0.36328 0.039062-0.55859 0.22266-0.14062 0.14062-0.21875 0.32031-0.21875 0.52734v63.125c0 0.14453 0.042969 0.35156 0.22656 0.53125 0.14844 0.14844 0.33594 0.21875 0.55078 0.21875h108.47c0.21094 0 0.39844-0.074219 0.54688-0.21875 0.1875-0.18359 0.23047-0.38672 0.23047-0.53125v-63.125c0-0.21094-0.082031-0.38672-0.23047-0.53516-0.1875-0.17969-0.39844-0.21875-0.54688-0.21875h-108.47z"/>
  <path d="m531.71 517.99h-15.492v13.531h15.492z"/>
  <path d="m562.7 517.99h-15.496v13.531h15.496z"/>
  <path d="m616.94 517.99h-38.742v13.531h38.742z"/>
  <path d="m609.2 570.6h-108.47c-3.9297 0-7.6211-1.4805-10.402-4.168-2.793-2.7148-4.3203-6.3008-4.3203-10.105v-63.125c0-3.8164 1.5312-7.3945 4.3125-10.094 2.7773-2.6953 6.4805-4.1797 10.41-4.1797h108.47c3.9336 0 7.6289 1.4844 10.406 4.1797 2.7812 2.6992 4.3164 6.2812 4.3164 10.094v63.125c0 3.8086-1.5312 7.3906-4.3047 10.09-2.7969 2.7031-6.4922 4.1836-10.418 4.1836zm-108.47-78.152c-0.21484 0-0.39453 0.074219-0.54687 0.22266-0.15234 0.14453-0.22656 0.32422-0.22656 0.52734v63.125c0 0.21094 0.078125 0.39062 0.23828 0.54297 0.13281 0.12891 0.32031 0.20703 0.53516 0.20703h108.47c0.21875 0 0.40234-0.074219 0.55469-0.21875 0.13672-0.13672 0.22266-0.32031 0.22266-0.52734v-63.125c0-0.20703-0.078124-0.38281-0.22656-0.53125s-0.33984-0.21875-0.54688-0.21875h-108.48z"/>
 </g>
</svg>