<?xml version="1.0" encoding="UTF-8"?>
<!-- Uploaded to: SVG Find, www.svgrepo.com, Generator: SVG Find Mixer Tools -->
<svg width="800px" height="800px" version="1.1" viewBox="144 144 512 512" xmlns="http://www.w3.org/2000/svg">
 <defs>
  <clipPath id="a">
   <path d="m148.09 183h503.81v358h-503.81z"/>
  </clipPath>
 </defs>
 <g clip-path="url(#a)">
  <path d="m627.27 540.28h-454.53c-13.621 0-24.641-11.02-24.641-24.641v-307.95c0-13.617 11.02-24.641 24.641-24.641h454.53c13.617 0 24.641 11.02 24.641 24.641v307.95c-0.003906 13.621-11.023 24.641-24.641 24.641zm-454.53-341.96c-5.1953 0-9.3672 4.1719-9.3672 9.3672v307.95c0 5.1953 4.1719 9.3672 9.3672 9.3672h454.53c5.1953 0 9.3672-4.1719 9.3672-9.3672v-307.95c0-5.1953-4.1719-9.3672-9.3672-9.3672z"/>
 </g>
 <path d="m613.09 485.73h-426.19c-4.25 0-7.6367-3.3867-7.6367-7.6367v-256.23c0-4.25 3.3867-7.6367 7.6367-7.6367h426.27c4.25 0 7.6367 3.3867 7.6367 7.6367v256.31c-0.078125 4.1719-3.4648 7.5586-7.7148 7.5586zm-418.55-15.273h410.92v-241.04h-410.92z"/>
 <path d="m400 520.52c-7.7148 0-14.012-6.2969-14.012-14.012 0-7.7148 6.2969-14.012 14.012-14.012s14.012 6.2969 14.012 14.012c0 7.7148-6.2969 14.012-14.012 14.012zm0-15.273c-0.70703 0-1.2578 0.55078-1.2578 1.1797 0 1.3398 2.4414 1.3398 2.4414 0-0.003906-0.62891-0.47656-1.1797-1.1836-1.1797z"/>
 <path d="m441.88 616.95c-4.25 0-7.6367-3.3867-7.6367-7.6367v-76.672c0-4.25 3.3867-7.6367 7.6367-7.6367s7.6367 3.3867 7.6367 7.6367v76.672c-0.003906 4.25-3.4648 7.6367-7.6367 7.6367z"/>
 <path d="m358.12 616.95c-4.25 0-7.6367-3.3867-7.6367-7.6367v-76.672c0-4.25 3.3867-7.6367 7.6367-7.6367s7.6367 3.3867 7.6367 7.6367v76.672c-0.003906 4.25-3.3867 7.6367-7.6367 7.6367z"/>
 <path d="m480.37 616.95h-160.75c-4.25 0-7.6367-3.3867-7.6367-7.6367s3.3867-7.6367 7.6367-7.6367h160.75c4.25 0 7.6367 3.3867 7.6367 7.6367s-3.4648 7.6367-7.6367 7.6367z"/>
 <path d="m391.5 342.3c-4.25 0-7.6367-3.3867-7.6367-7.6367v-19.523h-19.523c-4.25 0-7.6367-3.3867-7.6367-7.6367s3.3867-7.6367 7.6367-7.6367h27.16c4.25 0 7.6367 3.3867 7.6367 7.6367v27.16c0 4.1719-3.4648 7.6367-7.6367 7.6367z"/>
 <path d="m393.62 412.67h-160.75c-4.25 0-7.6367-3.3867-7.6367-7.6367v-124.77c0-4.25 3.3867-7.6367 7.6367-7.6367s7.6367 3.3867 7.6367 7.6367v117.14h153.11c4.25 0 7.6367 3.3867 7.6367 7.6367s-3.3828 7.6328-7.6367 7.6328z"/>
 <path d="m232.88 412.67c-1.9688 0-3.9375-0.70703-5.4336-2.2031-2.9922-2.9922-2.9922-7.793 0-10.785l77.777-77.777c2.9922-2.9922 7.793-2.9922 10.785 0l25.113 25.113 44.871-44.871c2.9922-2.9922 7.793-2.9922 10.785 0 2.9922 2.9922 2.9922 7.793 0 10.785l-50.301 50.301c-2.9922 2.9922-7.793 2.9922-10.785 0l-25.113-25.113-72.422 72.422c-1.3398 1.4219-3.3086 2.1289-5.2773 2.1289z"/>
 <path d="m491.55 427.23c-32.434 0-58.883-26.449-58.883-58.883 0-32.434 26.449-58.883 58.883-58.883 4.25 0 7.6367 3.3867 7.6367 7.6367v43.609h43.691c4.25 0 7.6367 3.3867 7.6367 7.6367-0.003906 32.512-26.453 58.883-58.965 58.883zm-7.6367-101.79c-20.387 3.6211-35.977 21.492-35.977 42.902 0 24.09 19.523 43.691 43.609 43.691 21.492 0 39.359-15.586 42.98-36.055h-42.98c-4.25 0-7.6367-3.3867-7.6367-7.6367z"/>
 <path d="m567.12 351.74h-51.324c-4.25 0-7.6367-3.3867-7.6367-7.6367v-51.246c0-4.25 3.3867-7.6367 7.6367-7.6367 32.512 0 58.883 26.371 58.883 58.883 0.078124 4.1758-3.3867 7.6367-7.5586 7.6367zm-43.688-15.27h35.344c-3.1484-17.949-17.398-32.117-35.344-35.266z"/>
</svg>