<?xml version="1.0" encoding="UTF-8"?>
<!-- Uploaded to: SVG Find, www.svgrepo.com, Generator: SVG Find Mixer Tools -->
<svg fill="#000000" width="800px" height="800px" version="1.1" viewBox="144 144 512 512" xmlns="http://www.w3.org/2000/svg">
 <g>
  <path d="m637.48 400c0-27.863-14.352-53.512-37.863-68.242 1.6797-6.1055 2.5195-12.441 2.5195-18.777 0-37.25-28.625-68.016-65.266-71.371v-0.45703-0.83984-0.15234c-0.15234-39.465-32.215-71.449-71.602-71.449-28.93 0-53.969 17.25-65.266 42.059-11.297-24.809-36.258-42.059-65.191-42.059-39.391 0-71.527 32.062-71.602 71.449v0.15234 0.83984 0.38281c-36.562 3.2812-65.266 34.047-65.266 71.449 0 6.3359 0.83984 12.594 2.5195 18.777-23.59 14.648-37.941 40.375-37.941 68.238s14.352 53.586 37.863 68.168c-1.6797 6.1836-2.5195 12.52-2.5195 18.777 0 37.25 28.625 68.016 65.266 71.371v1.2969c0 39.543 32.137 71.68 71.602 71.68 28.93 0 53.891-17.25 65.191-42.059 11.297 24.809 36.336 42.059 65.266 42.059 39.465 0 71.602-32.137 71.602-71.68v-1.2969c36.562-3.2812 65.266-34.047 65.266-71.371 0-6.3359-0.83984-12.672-2.5195-18.777 23.59-14.582 37.941-40.309 37.941-68.168zm-42.594 55.801c-4.5039-9.3125-10.914-17.48-19.008-24.047-0.6875-7.0977-3.5859-14.047-9.082-19.465-2.5195-2.5195-6.5664-2.5195-9.082 0-2.5195 2.5195-2.5195 6.5664 0 9.082 7.4805 7.4805 7.4805 19.617 0 27.098-2.5195 2.5195-2.5195 6.5664 0 9.082 1.2227 1.2227 2.9023 1.9102 4.5039 1.9102 1.6797 0 3.2812-0.60938 4.5039-1.9102 3.0547-3.0547 5.3438-6.5664 6.8711-10.305 5.3438 5.8008 9.543 12.52 12.215 20v0.078125c2.2891 6.3359 3.4336 12.977 3.4336 19.617 0 30.688-23.664 55.953-54.047 58.625-1.832-9.3125-5.418-18.09-10.762-25.953 4.8867-1.6797 9.543-4.2734 13.586-7.8633 2.5938-2.3672 2.8242-6.4141 0.45703-9.082-2.3672-2.6719-6.4141-2.8242-9.082-0.45703-10.914 9.7695-27.711 8.9297-37.559-1.9844-2.3672-2.6719-6.4141-2.8242-9.082-0.45703-2.6719 2.3672-2.8242 6.4141-0.45703 9.082 7.3281 8.168 17.328 12.367 27.559 12.824 7.6328 8.9297 12.367 19.695 13.664 31.375v0.078125c0.15234 2.1367 0.30469 4.3516 0.30469 6.5664 0 32.441-26.336 58.855-58.777 58.855-32.441 0-58.777-26.336-58.855-58.703v-0.15234-28.398c0-3.5117-2.9023-6.4141-6.4141-6.4141-3.5117 0-6.4141 2.9023-6.4141 6.4141v28.242 0.15234c0 32.441-26.336 58.855-58.777 58.855-32.441 0-58.777-26.41-58.777-58.855 0-2.2148 0.15234-4.4258 0.30469-6.5664v-0.078125c1.2969-11.602 6.1055-22.367 13.664-31.375 10.152-0.45703 20.23-4.6562 27.559-12.824 2.3672-2.6719 2.1367-6.7188-0.45703-9.082-2.5938-2.3672-6.7188-2.1367-9.082 0.45703-9.7695 10.914-26.641 11.754-37.559 1.9844-2.6719-2.3672-6.7188-2.1367-9.082 0.45703-2.3672 2.5938-2.1367 6.7188 0.45703 9.082 4.0469 3.6641 8.7031 6.2578 13.586 7.8633-5.3438 7.8633-8.9297 16.641-10.762 26.031-30.152-2.5195-53.969-27.785-53.969-58.625 0-6.4883 1.0703-13.055 3.2812-19.465 0-0.078125 0.078125-0.078125 0.078125-0.15234 2.6719-7.5586 6.8711-14.273 12.215-20.074 1.6016 3.8164 3.8945 7.25 6.8711 10.305 1.2227 1.2227 2.9023 1.9102 4.5039 1.9102 1.6016 0 3.2812-0.60937 4.5039-1.9102 2.5195-2.5195 2.5195-6.5664 0-9.082-3.5859-3.5859-5.5742-8.3984-5.5742-13.586 0-5.1914 1.9844-9.9219 5.5742-13.586 2.5195-2.5195 2.5195-6.5664 0-9.082-2.5195-2.5195-6.5664-2.5195-9.082 0-5.2656 5.2656-8.3203 12.137-9.082 19.465-8.0898 6.6406-14.504 14.809-19.008 24.121-18.473-12.52-29.77-33.281-29.77-55.879 0-24.734 13.512-47.402 35.191-59.312 0.078125 0 0.078125 0 0.15234-0.078125 9.0078-4.8867 19.082-7.5586 29.391-8.0156 1.2969 5.6484 4.0469 11.07 8.4727 15.496 1.2227 1.2227 2.9023 1.9102 4.5039 1.9102s3.2812-0.60938 4.5039-1.9102c2.5195-2.5195 2.5195-6.5664 0-9.082-7.4805-7.4805-7.4805-19.617 0-27.098 2.5195-2.5195 2.5195-6.5664 0-9.082-2.5195-2.5195-6.5664-2.5195-9.082 0-4.8086 4.8086-7.7109 10.688-8.7773 16.945-9.4648 0.38281-18.855 2.3672-27.559 6.0312-0.55078-4.2031-1.0859-8.5547-1.0859-12.828 0-30.688 23.586-55.879 53.816-58.625 1.832 9.1602 5.418 17.785 10.609 25.648-3.1289 4.8086-4.8086 10.383-4.8086 16.184 0 3.5117 2.9023 6.4141 6.4141 6.4141s6.4141-2.9023 6.4141-6.4141c0-4.582 1.7539-8.8555 5.0391-12.137 3.2812-3.2812 7.5586-5.0391 12.137-5.0391 3.5117 0 6.4141-2.9023 6.4141-6.4141s-2.9023-6.4141-6.4141-6.4141c-5.6484 0-10.992 1.6016-15.727 4.582-5.4961-8.9297-8.4727-19.082-8.625-29.695v-0.76172c0-32.441 26.336-58.855 58.777-58.855s58.777 26.41 58.777 58.855v0.15234 28.168c0 3.5117 2.9023 6.4141 6.4141 6.4141s6.4141-2.9023 6.4141-6.4141v-28.398-0.15234c0.078125-32.367 26.488-58.703 58.855-58.703 32.441 0 58.777 26.41 58.777 58.855v0.76172c-0.15234 10.383-3.0547 20.305-8.3203 29.16-4.3516-2.4414-9.2383-3.9688-14.578-3.9688-3.5117 0-6.4141 2.9023-6.4141 6.4141s2.9023 6.4141 6.4141 6.4141c9.4648 0 17.176 7.7109 17.176 17.176 0 3.5117 2.9023 6.4141 6.4141 6.4141 3.5117 0 6.4141-2.9023 6.4141-6.4141 0-6.4883-2.0625-12.441-5.5742-17.328 4.8867-7.5586 8.2461-15.879 9.9219-24.656 30.074 2.5938 53.816 27.863 53.816 58.625 0 4.3516-0.53516 8.625-1.4492 12.824-8.7773-3.5859-18.09-5.6484-27.559-5.9531-1.1445-6.4141-4.1211-12.289-8.7773-16.945-2.5195-2.5195-6.5664-2.5195-9.082 0-2.5195 2.5195-2.5195 6.5664 0 9.082 3.5859 3.5859 5.5742 8.3984 5.5742 13.586 0 5.1133-1.9844 9.9219-5.5742 13.586-2.5195 2.5195-2.5195 6.5664 0 9.082 1.2227 1.2227 2.9023 1.9102 4.5039 1.9102 1.6797 0 3.2812-0.60938 4.5039-1.9102 4.3516-4.3516 7.1758-9.6953 8.4727-15.496 10.23 0.45703 20.305 3.0547 29.312 7.9375 21.832 11.91 35.418 34.656 35.418 59.387 0.066406 22.68-11.23 43.441-29.703 55.887z"/>
  <path d="m503.12 360.15c3.5117 0 6.4141-2.9023 6.4141-6.4141s-2.9023-6.4141-6.4141-6.4141l-19.922 0.003906v-18.09c0-9.543-7.7109-17.25-17.25-17.25h-18.09v-19.848c0-3.5117-2.9023-6.4141-6.4141-6.4141s-6.4141 2.9023-6.4141 6.4141v19.848h-28.625v-19.848c0-3.5117-2.9023-6.4141-6.4141-6.4141-3.5117 0-6.4141 2.9023-6.4141 6.4141v19.848h-28.625v-19.848c0-3.5117-2.9023-6.4141-6.4141-6.4141s-6.4141 2.9023-6.4141 6.4141v19.848h-18.09c-9.543 0-17.25 7.7109-17.25 17.25v18.09h-19.922c-3.5117 0-6.4141 2.9023-6.4141 6.4141 0 3.5117 2.9023 6.4141 6.4141 6.4141h19.922v28.625h-19.922c-3.5117 0-6.4141 2.9023-6.4141 6.4141 0 3.5117 2.9023 6.4141 6.4141 6.4141h19.922v28.625h-19.922c-3.5117 0-6.4141 2.9023-6.4141 6.4141 0 3.5117 2.9023 6.4141 6.4141 6.4141h19.922v18.09c0 9.543 7.7109 17.25 17.25 17.25h18.09v19.922c0 3.5117 2.9023 6.4141 6.4141 6.4141s6.4141-2.9023 6.4141-6.4141v-19.922h28.625v19.922c0 3.5117 2.9023 6.4141 6.4141 6.4141 3.5117 0 6.4141-2.9023 6.4141-6.4141v-19.922h28.625v19.922c0 3.5117 2.9023 6.4141 6.4141 6.4141s6.4141-2.9023 6.4141-6.4141v-19.922h18.09c9.543 0 17.25-7.7109 17.25-17.25v-18.09h19.922c3.5117 0 6.4141-2.9023 6.4141-6.4141 0-3.5117-2.9023-6.4141-6.4141-6.4141l-19.922-0.007813v-28.625h19.922c3.5117 0 6.4141-2.9023 6.4141-6.4141s-2.9023-6.4141-6.4141-6.4141l-19.922 0.003906v-28.625zm-32.746 100.99c0 2.4414-1.9844 4.4258-4.4258 4.4258h-131.91c-2.4414 0-4.4258-1.9844-4.4258-4.4258l-0.003906-131.98c0-2.4414 1.9844-4.4258 4.4258-4.4258h131.91c2.4414 0 4.4258 1.9844 4.4258 4.4258z"/>
  <path d="m452.36 382.75-5.8789-1.9102c-0.91797-2.9766-2.0625-5.8008-3.5117-8.5508l2.8242-5.4961c1.9102-3.7422 1.2227-8.2461-1.7539-11.145l-4.582-4.582c-2.9766-2.9766-7.4805-3.6641-11.223-1.7539l-5.4961 2.8242c-2.75-1.4492-5.5742-2.5938-8.5508-3.5117l-1.9102-5.8008c-1.2969-3.9688-4.9609-6.6406-9.1602-6.6406h-6.4141c-4.1992 0-7.8633 2.6719-9.1602 6.6406l-1.9102 5.8008c-2.9766 0.91797-5.8008 2.0625-8.5508 3.5117l-5.4961-2.8242c-3.7422-1.9102-8.2461-1.2227-11.223 1.7539l-4.5039 4.5039c-2.9766 2.9766-3.6641 7.4805-1.7539 11.223l2.8242 5.4961c-1.4492 2.75-2.6719 5.5742-3.5117 8.5508l-5.8789 1.9102c-3.9688 1.2969-6.6406 4.9609-6.6406 9.1602v6.4141c0 4.1992 2.6719 7.8633 6.6406 9.1602l5.8008 1.9102c0.91797 2.9766 2.0625 5.8008 3.5117 8.5508l-2.8242 5.4961c-1.9102 3.7422-1.2227 8.2461 1.7539 11.223l4.582 4.582c2.9766 2.9766 7.4805 3.6641 11.223 1.7539l5.4961-2.8242c2.75 1.4492 5.5742 2.6719 8.5508 3.5117l1.9102 5.8008c1.2969 3.9688 4.9609 6.6406 9.1602 6.6406h6.4141c4.1992 0 7.8633-2.6719 9.1602-6.6406l1.9102-5.8008c2.9766-0.91797 5.8008-2.0625 8.5508-3.5117l5.418 2.8242c3.7422 1.9102 8.2461 1.2227 11.223-1.7539l4.5039-4.5039c2.9766-2.9766 3.6641-7.4805 1.7539-11.223l-2.8242-5.4961c1.4492-2.75 2.6719-5.5742 3.5117-8.5508l5.8008-1.9102c3.9688-1.2969 6.6406-4.9609 6.6406-9.1602v-6.4141c0.23438-4.2773-2.4375-7.9414-6.4062-9.2383zm-6.1836 13.281-6.9453 2.2148c-2.1367 0.6875-3.8164 2.5195-4.2734 4.7344-0.91797 4.0469-2.5195 7.8633-4.6562 11.297-1.2227 1.9102-1.375 4.3516-0.30469 6.4141l3.3594 6.4883-1.2227 1.2227-6.4883-3.3594c-2.0625-1.0703-4.5039-0.91797-6.4141 0.30469-3.4336 2.2148-7.25 3.7422-11.297 4.6562-2.2148 0.45703-4.0469 2.1367-4.7344 4.2734l-2.2148 6.9453h-1.7539l-2.2148-6.9453c-0.6875-2.2148-2.5195-3.8164-4.7344-4.2734-3.9688-0.83984-7.7852-2.4414-11.297-4.6562-1.9102-1.2227-4.3516-1.2969-6.3359-0.30469l-6.4883 3.3594-1.2227-1.2227 3.2812-6.4883c1.0703-2.0625 0.91797-4.4258-0.30469-6.3359-2.2148-3.5117-3.8164-7.3281-4.6562-11.297-0.45703-2.2148-2.1367-4.0469-4.2734-4.7344l-6.9453-2.2148v-1.7539l6.9453-2.2148c2.1367-0.6875 3.8164-2.5195 4.2734-4.7344 0.91797-4.0469 2.5195-7.8633 4.7344-11.297 1.2227-1.9102 1.375-4.3516 0.30469-6.4141l-3.3594-6.4883 1.2227-1.2227 6.4883 3.3594c2.0625 1.0703 4.5039 0.91797 6.4141-0.30469 3.4336-2.2148 7.25-3.8164 11.297-4.7344 2.2148-0.53516 3.9688-2.1367 4.7344-4.2734l2.2148-6.9453h1.7539l2.2148 6.9453c0.6875 2.1367 2.5195 3.8164 4.7344 4.2734 4.0469 0.91797 7.8633 2.4414 11.297 4.6562 1.9102 1.2227 4.3516 1.375 6.4141 0.30469l6.4883-3.3594 1.2227 1.2227-3.3594 6.4883c-1.0703 2.0625-0.91797 4.5039 0.30469 6.4141 2.2148 3.4336 3.8164 7.25 4.6562 11.297 0.45703 2.2148 2.1367 4.0469 4.2734 4.7344l6.9453 2.2148v1.7539z"/>
  <path d="m400 373.82c-11.754 0-21.297 9.543-21.297 21.297 0 11.754 9.543 21.297 21.297 21.297s21.297-9.543 21.297-21.297c0-11.68-9.543-21.297-21.297-21.297zm0 29.848c-4.6562 0-8.4727-3.8164-8.4727-8.4727s3.8164-8.4727 8.4727-8.4727 8.4727 3.8164 8.4727 8.4727-3.8164 8.4727-8.4727 8.4727z"/>
 </g>
</svg>